<?xml version="1.0" encoding="utf-8"?>
<!-- Generator: Adobe Illustrator 27.1.1, SVG Export Plug-In . SVG Version: 6.00 Build 0)  -->
<svg version="1.1" id="Layer_1" xmlns="http://www.w3.org/2000/svg" xmlns:xlink="http://www.w3.org/1999/xlink" x="0px" y="0px"
	 viewBox="0 0 1080 1080" style="enable-background:new 0 0 1080 1080;" xml:space="preserve">
<style type="text/css">
	.st0{fill:#ECECEC;}
	.st1{fill:#F5F5F5;}
	.st2{fill:#375A64;}
	.st3{fill:#FFFFFF;}
	.st4{fill:#E1E1E1;}
	.st5{fill:#1A2E35;}
	.st6{fill:#FFBF9D;}
	.st7{fill:#FF9A6C;}
	.st8{fill:#FF735D;}
	.st9{fill:#FAFAFA;}
	.st10{opacity:0.3;}
</style>
<g>
	<path class="st0" d="M260.3,967l13.1-3.5c0,0-2.9-11.2,8.5-14.5c5.9-1.7,10,1.4,12.1,4.1c2.4,3.1,3,7.3,1.9,11.1
		c-1.3,4.3-5.3,9-14.5,9.8l7.8,30.1l13-3.5l-4.6-17.7c0,0,17-9.7,11.7-30.1c-5.1-19.5-23.5-19.5-30.9-17.5
		C272.8,937,253.9,943.5,260.3,967L260.3,967z"/>
	<polygon class="st0" points="307.2,1019.4 294,1022.9 290.7,1010.4 303.9,1006.8 	"/>
</g>
<rect width="1080" height="1080"/>
<g>
	<path class="st0" d="M149.2,893.1l-25.1-17.5c0,0-14.5,21.4-36.6,6.5c-11.5-7.7-12.3-19.4-10.7-26.9c1.8-8.7,7.8-15.8,15.8-19.4
		c9.1-4.2,22.8-4.1,37.6,10.7l38.9-57.4l-24.8-17.3l-22.8,33.6c0,0-41-15.2-67.3,23.8C28.9,866.4,56,898,70,907.9
		C80.8,915.4,119.3,938.4,149.2,893.1L149.2,893.1z"/>
	<polygon class="st0" points="168.2,735.9 193.4,753.5 177.2,777.3 152,759.7 	"/>
</g>
<g>
	<path class="st0" d="M256.2,963.6l13.3-3.6c0,0-3-11.4,8.6-14.7c6-1.7,10.2,1.5,12.3,4.2c2.4,3.2,3,7.4,1.9,11.2
		c-1.3,4.4-5.3,9.2-14.7,10l7.9,30.5l13.2-3.5l-4.6-17.9c0,0,17.2-9.8,11.8-30.5c-5.1-19.8-23.8-19.7-31.3-17.7
		C268.8,933.2,249.7,939.8,256.2,963.6L256.2,963.6z"/>
	<polygon class="st0" points="303.7,1016.6 290.3,1020.2 287,1007.5 300.4,1003.9 	"/>
</g>
<path class="st1" d="M477.4,109.5c6.8-4.2,14.1-7.4,21.6-9.5l4.4-21.7l36.1-0.6l5.2,21.5c7.6,1.9,14.9,4.8,21.9,8.8l18.2-12.1
	l26,25.5l-11.3,18.9c4.1,6.9,7.3,14.3,9.4,21.9l21.3,4.5l0.6,36.7l-21.2,5.3c-1.9,7.7-4.7,15.2-8.6,22.2l12,18.5l-25.1,26.4
	l-18.6-11.5c-6.8,4.2-14.1,7.4-21.6,9.5l-4.5,21.7l-36.1,0.6l-5.2-21.5c-7.6-1.9-14.9-4.8-21.9-8.8l-18.2,12.1l-26-25.5l11.3-18.9
	c-4.1-6.9-7.3-14.3-9.4-21.9l-21.4-4.5l-0.6-36.6l21.2-5.3c1.9-7.7,4.7-15.2,8.6-22.2l-12-18.5L458.7,98L477.4,109.5L477.4,109.5
	L477.4,109.5z M496.6,158.4c-14.9,15.6-14.4,40.5,1,55.6c15.4,15.1,39.9,14.6,54.7-1c14.8-15.6,14.4-40.5-1-55.6
	C535.9,142.3,511.4,142.7,496.6,158.4L496.6,158.4z"/>
<path class="st0" d="M326.2,33.1c3.9-2.4,8.1-4.2,12.4-5.5l2.6-12.5l20.8-0.4l3,12.4c4.4,1.1,8.6,2.8,12.6,5l10.5-7l15,14.7
	l-6.5,10.9c2.4,4,4.2,8.2,5.4,12.6l12.3,2.6l0.4,21.1l-12.2,3c-1.1,4.4-2.7,8.7-5,12.8l6.9,10.7l-14.4,15.2l-10.7-6.6
	c-3.9,2.4-8.1,4.2-12.4,5.5l-2.6,12.5l-20.8,0.4l-3-12.4c-4.4-1.1-8.6-2.8-12.6-5l-10.5,7l-15-14.7l6.5-10.9
	c-2.4-4-4.2-8.2-5.4-12.6l-12.3-2.6l-0.4-21.1l12.2-3c1.1-4.4,2.7-8.7,5-12.8l-6.9-10.7l14.4-15.2L326.2,33.1L326.2,33.1L326.2,33.1
	z M337.3,61.2c-8.5,9-8.3,23.3,0.5,32s23,8.4,31.5-0.6c8.5-9,8.3-23.3-0.5-32S345.9,52.2,337.3,61.2z"/>
<path class="st0" d="M989.5,425.1c3.9-2.4,8.1-4.2,12.4-5.5l2.6-12.5l20.8-0.4l3,12.4c4.4,1.1,8.6,2.8,12.6,5l10.5-7l14.9,14.7
	l-6.5,10.9c2.4,4,4.2,8.2,5.4,12.6l12.3,2.6l0.4,21.1l-12.2,3c-1.1,4.4-2.7,8.7-5,12.8l6.9,10.7l-14.4,15.2l-10.7-6.6
	c-3.9,2.4-8.1,4.2-12.4,5.5l-2.6,12.5l-20.8,0.4l-3-12.4c-4.3-1.1-8.6-2.8-12.6-5l-10.5,7l-15-14.7l6.5-10.9
	c-2.4-4-4.2-8.2-5.4-12.6l-12.3-2.6l-0.4-21.1l12.2-3c1.1-4.4,2.7-8.7,5-12.8l-6.9-10.7l14.4-15.2L989.5,425.1L989.5,425.1
	L989.5,425.1z M1000.6,453.2c-8.5,9-8.3,23.3,0.5,32s23,8.4,31.5-0.6c8.6-9,8.3-23.3-0.6-32C1023.3,443.9,1009.2,444.2,1000.6,453.2
	L1000.6,453.2z"/>
<g>
	<g>
		<g>
			<path class="st2" d="M936.7,1047.9l-335.1-0.2c-40.3,0-73-33.2-73-74.2l0.2-853.4c0-41,32.7-74.2,73-74.1l335.1,0.2
				c40.3,0,73,33.2,73,74.2l-0.2,853.4C1009.7,1014.8,977,1048,936.7,1047.9z"/>
			<path class="st3" d="M936.6,76.4l-65,0c-8.7,0-15.8,7.5-15.8,16.7v12c0,9.3-7.1,16.8-15.8,16.7l-126.6-0.1
				c-8.7,0-15.8-7.5-15.8-16.8V93c0-9.3-7.1-16.8-15.8-16.8H659l-56.9-0.1c-28.2,0-51.2,23.2-51.2,51.9l-0.2,833
				c0,28.7,22.9,51.9,51.1,51.9l334.4,0.2c28.2,0,51.1-23.2,51.2-51.9l0.2-833C987.7,99.7,964.8,76.5,936.6,76.4L936.6,76.4z"/>
		</g>
		<path class="st0" d="M987.6,251.5V127.4c-0.5-28.2-23.2-51-51.1-51l-65,0c-8.7,0-15.8,7.5-15.8,16.7v12c0,9.3-7.1,16.8-15.8,16.7
			l-126.6-0.1c-8.7,0-15.8-7.5-15.8-16.8V93c0-9.3-7.1-16.8-15.8-16.8H659l-56.9-0.1c-28.2,0-51.2,23.2-51.2,51.9l0,123.7h436.7
			L987.6,251.5L987.6,251.5z"/>
	</g>
	<g>
		<ellipse class="st4" cx="640" cy="366.2" rx="52.9" ry="53.6"/>
		<g>
			<g>
				<path class="st2" d="M615.3,379.6l13.8-1.2l33.8,5.8l4,25.9l-0.6,3c-16.4,9.2-34.7,9-50.2,1.2L615.3,379.6"/>
				<path class="st2" d="M655.8,383.8c0,0,10.7-2.1,17.5,7.8c4.2,6.1,6.3,10.2,6.3,10.2c-5.5,6.1-10,10.7-17.6,13.4L655.8,383.8
					L655.8,383.8z"/>
			</g>
			<path class="st2" d="M615.3,379.6c0,0-9.2,1.1-12.7,9.1c-3.6,7.9-4.4,10.4-4.4,10.4c4.7,5.8,10.8,12.6,18.1,15.2
				c0,0,1.7-20,1.9-25.6C618.5,382.5,618.8,379.4,615.3,379.6L615.3,379.6z"/>
		</g>
		<g>
			<g>
				<path class="st5" d="M623.7,328.8c5-6.1,11.6-9.7,19.4-9.8c4.4-0.1,6.2,0.9,9.4,1.7c3.2,0.9,6,2.6,7.9,5.3
					c2.3,3.2,4.1,6.9,4.6,10.8c0.4,4,0.9,8.1,0.6,12.2c-0.3,4-1.4,8.1-3.7,11.4l-10.2,1.8c-5.6,0.2-11.3,0.4-16.8-0.9
					c-5.5-1.3-10.8-4.3-13.7-9.1C617.1,345.4,618.8,334.9,623.7,328.8L623.7,328.8z"/>
				<path class="st5" d="M613.8,358.7c0.3-2.3,1.5-4.6,3.4-5.8c2-1.2,4.8-1.1,6.4,0.6l1.6,1.9c2.5,1.1,4.1,4,3.8,6.7s-2.4,5.2-5,6
					c-2.6,0.8-5.6,0-7.6-1.9C614.5,364.4,613.5,361.5,613.8,358.7z"/>
				<path class="st2" d="M615.8,365.7c0.1,0-0.6-0.7-0.5-2c0.1-1.3,1-3,2.3-4.6c1.3-1.6,2.9-2.7,4.1-3.3c1.2-0.6,2-0.9,2-1
					c0,0-0.9,0.1-2.1,0.6c-1.3,0.6-2.9,1.6-4.3,3.3c-0.7,0.8-1.2,1.7-1.6,2.5c-0.4,0.8-0.7,1.7-0.7,2.4c0,0.7,0.2,1.3,0.5,1.6
					C615.7,365.6,615.9,365.7,615.8,365.7L615.8,365.7z"/>
				<g>
					<path class="st6" d="M651.5,382c0,0,0-9.6,0-9.6c0,0,8.3-0.9,10.6-11.7c1.1-5.4,1.3-14.2,1.3-21.5c0-6.5-5.5-15.5-13.5-15.5
						l-3.5-0.4l-13.6,5.5c-2,0.1-3.5,1.7-3.6,3.7l-0.4,46l6.2,8.8C640.1,394.6,651.5,390.9,651.5,382L651.5,382L651.5,382z"/>
					<path class="st7" d="M646.1,358.2c0.1-0.6,0.4-1.1,0.8-1.4c0.8-0.7,2-0.8,2.8-0.2c0.8,0.6,1.3,1.8,1.2,3l0,0
						c-0.5,0.7-1.2,1.1-2,1.2c-0.1,0-0.3,0-0.4,0c-0.6,0-1.2-0.2-1.7-0.7C646.3,359.6,646,358.9,646.1,358.2L646.1,358.2z"/>
					<g>
						<path class="st5" d="M658.5,346.7c0,0.7-0.6,1.3-1.4,1.3s-1.4-0.6-1.3-1.3s0.6-1.3,1.4-1.3S658.5,345.9,658.5,346.7z"/>
						<path class="st5" d="M660.7,343.2c-0.2,0.2-1.2-0.7-2.7-0.8c-1.5-0.1-2.6,0.6-2.8,0.4c-0.1-0.1,0.1-0.4,0.6-0.7
							c0.5-0.3,1.3-0.6,2.2-0.6s1.7,0.4,2.1,0.8C660.7,342.8,660.8,343.1,660.7,343.2L660.7,343.2z"/>
						<path class="st5" d="M651.4,354.6c0-0.1,0.9-0.2,2.4-0.3c0.4,0,0.7-0.1,0.8-0.3c0.1-0.3,0-0.7-0.2-1.1c-0.3-1-0.6-1.9-1-3
							c-1.3-4.2-2.3-7.7-2.1-7.8c0.2,0,1.4,3.3,2.7,7.6c0.3,1,0.6,2,0.9,3c0.1,0.4,0.3,1,0.1,1.5c-0.1,0.3-0.4,0.5-0.7,0.5
							c-0.3,0.1-0.5,0-0.7,0C652.4,354.7,651.4,354.6,651.4,354.6L651.4,354.6z"/>
						<path class="st7" d="M651.5,372.4c0,0-7.2,0.1-14.2-4.7c0,0,3.4,7.8,14.2,7.3L651.5,372.4L651.5,372.4z"/>
						<path class="st5" d="M647,355.4c0.2,0,0.2,1.6,1.5,2.9c1.3,1.2,3,1.1,3,1.4c0,0.1-0.4,0.3-1.1,0.3c-0.7,0-1.7-0.3-2.5-1.1
							c-0.8-0.8-1.1-1.7-1.1-2.4C646.7,355.7,646.9,355.3,647,355.4L647,355.4z"/>
						<path class="st5" d="M660.4,337.5c-0.3,0.4-1.4,0-2.7,0.1c-1.3,0-2.5,0.3-2.7,0c-0.1-0.2,0-0.5,0.5-0.9
							c0.5-0.3,1.3-0.6,2.2-0.6c0.9,0,1.7,0.3,2.2,0.6C660.4,337,660.6,337.4,660.4,337.5L660.4,337.5z"/>
						<path class="st5" d="M642.3,346.6c0,0.7,0.5,1.4,1.3,1.4c0.8,0,1.4-0.5,1.4-1.2c0-0.7-0.5-1.4-1.3-1.4
							C642.9,345.3,642.3,345.8,642.3,346.6z"/>
						<path class="st5" d="M640.5,342.7c0.2,0.2,1.2-0.6,2.7-0.5c1.5,0,2.6,0.8,2.7,0.6c0.1-0.1-0.1-0.4-0.6-0.8
							c-0.5-0.4-1.3-0.7-2.2-0.7s-1.7,0.3-2.2,0.7C640.5,342.3,640.4,342.6,640.5,342.7L640.5,342.7z"/>
						<path class="st5" d="M639.6,339.4c0.3,0.4,1.4,0,2.8,0c1.4,0,2.5,0.3,2.8-0.1c0.1-0.2-0.1-0.5-0.6-0.9
							c-0.5-0.3-1.3-0.6-2.3-0.6c-1,0-1.8,0.3-2.3,0.6C639.6,338.9,639.5,339.3,639.6,339.4L639.6,339.4z"/>
					</g>
					<g>
						<path class="st6" d="M631,350.7c0-0.8-0.8-2.8-1.6-2.9c-2.1-0.5-5.9-0.5-6.2,4.9c-0.5,7.4,7,6.3,7,6.1
							C630.3,358.6,630.9,353.5,631,350.7L631,350.7z"/>
						<path class="st7" d="M628.4,356c0,0-0.1,0.1-0.3,0.2c-0.2,0.1-0.6,0.1-1,0c-0.8-0.3-1.3-1.6-1.3-3c0-0.7,0.2-1.3,0.5-1.8
							c0.3-0.5,0.6-0.9,1-0.9c0.4-0.1,0.7,0.2,0.7,0.4c0.1,0.2,0,0.4,0.1,0.4c0,0,0.2-0.1,0.1-0.4c0-0.1-0.1-0.3-0.3-0.5
							c-0.2-0.2-0.4-0.2-0.7-0.2c-0.6,0-1.1,0.5-1.4,1.1c-0.3,0.6-0.5,1.3-0.6,2c0,1.5,0.6,2.9,1.7,3.3c0.5,0.2,0.9,0,1.2-0.1
							C628.4,356.2,628.4,356,628.4,356L628.4,356z"/>
					</g>
				</g>
				<path class="st5" d="M629.1,347.8l1.9,2c8-7.8,23.7-27.3,22.8-26.1c0,0-5.5-2.3-11.5-1.3c-6,1-17.3,4.1-17.1,11.2
					C625.4,340.7,629.1,347.8,629.1,347.8z"/>
			</g>
			<path class="st2" d="M618.5,346.1c0,0,0-0.1,0.1-0.4c0.1-0.3,0.2-0.7,0.5-1.2c0.5-1,1.5-2.3,3.1-3.5c1.5-1.2,3.7-2.2,6.2-3
				c2.5-0.8,5.2-1.4,7.9-2.6c2.7-1.1,5.2-2.6,7.2-4.1c2.1-1.5,3.8-3.1,5.1-4.5c1.3-1.4,2.3-2.7,3-3.5c0.3-0.4,0.5-0.8,0.7-1
				c0.2-0.2,0.3-0.4,0.3-0.3c0,0-0.1,0.1-0.2,0.4c-0.2,0.2-0.4,0.6-0.7,1.1c-0.6,0.9-1.6,2.2-2.9,3.6s-3,3.1-5.1,4.6
				c-2.1,1.5-4.5,3-7.3,4.2c-2.7,1.2-5.5,1.8-8,2.6c-2.4,0.8-4.6,1.7-6.1,2.9c-1.6,1.1-2.5,2.4-3.1,3.3
				C618.7,345.6,618.6,346.2,618.5,346.1L618.5,346.1z"/>
			<path class="st2" d="M620.7,347.3c0,0-0.1-0.6,0.3-1.6c0.3-1,1.2-2.4,2.8-3.5c1.5-1.2,3.7-1.9,6.1-2.4c2.4-0.5,5-1.2,7.6-2.4
				c2.6-1.2,4.9-2.7,6.8-4.2c1.9-1.6,3.5-3.2,4.6-4.6c1.2-1.4,2-2.7,2.6-3.6c0.3-0.4,0.5-0.8,0.6-1c0.2-0.2,0.2-0.4,0.2-0.4
				c0,0,0,0.1-0.2,0.4c-0.2,0.3-0.3,0.6-0.6,1.1c-0.5,0.9-1.3,2.2-2.5,3.7c-1.2,1.5-2.7,3.1-4.6,4.7c-1.9,1.6-4.2,3.1-6.8,4.3
				c-2.6,1.2-5.3,1.9-7.7,2.4c-2.4,0.5-4.5,1.2-6,2.3c-1.5,1.1-2.4,2.4-2.8,3.3C620.7,346.7,620.7,347.3,620.7,347.3L620.7,347.3z"
				/>
		</g>
		<path class="st5" d="M616.4,414.3c-0.1,0-0.2-3.2-0.2-7.1s0.1-7.1,0.2-7.1s0.2,3.2,0.2,7.1S616.5,414.3,616.4,414.3z"/>
		<path class="st5" d="M666.5,413.3c-0.1,0,0-1,0.1-2.5c0.1-1.5,0.2-3.7-0.2-6c-0.4-2.3-1.2-4.3-1.7-5.8c-0.6-1.5-0.9-2.3-0.8-2.4
			c0.1,0,0.5,0.8,1.2,2.2c0.6,1.4,1.5,3.5,1.9,5.8c0.4,2.4,0.2,4.6,0.1,6.1C666.7,412.3,666.5,413.3,666.5,413.3L666.5,413.3z"/>
	</g>
	<path class="st0" d="M921.1,434.3H740.8c-9,0-16.2-7.4-16.2-16.5v-76.9L704.7,323h216.5c9,0,16.2,7.4,16.2,16.5v78.4
		C937.4,426.9,930.1,434.3,921.1,434.3z"/>
	<path class="st4" d="M908.8,446.8c0,0.3-8.6,0.6-19.2,0.6s-19.2-0.3-19.2-0.6s8.6-0.6,19.2-0.6S908.8,446.4,908.8,446.8z"/>
	<g>
		<path class="st8" d="M916.7,448.3c-0.2,0-0.3-0.1-0.4-0.2l-3.7-4c-0.2-0.2-0.2-0.6,0-0.9s0.6-0.2,0.8,0l3.3,3.5l7.2-7.5
			c0.2-0.2,0.6-0.2,0.8,0c0.2,0.2,0.2,0.6,0,0.9l-7.7,7.9C917,448.2,916.9,448.3,916.7,448.3L916.7,448.3z"/>
		<path class="st8" d="M922.1,448.2L922.1,448.2l-0.7,0c-0.3,0-0.6-0.3-0.6-0.6s0.3-0.6,0.6-0.6h0.4l7.5-7.7c0.2-0.2,0.6-0.2,0.8,0
			c0.2,0.2,0.2,0.6,0,0.9l-7.7,7.9C922.4,448.1,922.2,448.2,922.1,448.2L922.1,448.2z"/>
	</g>
	<path class="st4" d="M908.8,748c0,0.3-8.6,0.6-19.2,0.6s-19.2-0.3-19.2-0.6s8.6-0.6,19.2-0.6S908.8,747.7,908.8,748z"/>
	<g>
		<path class="st8" d="M916.7,749.5L916.7,749.5c-0.2,0-0.3-0.1-0.4-0.2l-3.7-4c-0.2-0.2-0.2-0.6,0-0.8c0.2-0.2,0.6-0.2,0.8,0
			l3.3,3.5l7.2-7.5c0.2-0.2,0.6-0.2,0.8,0c0.2,0.2,0.2,0.6,0,0.8l-7.7,7.9C917,749.5,916.9,749.5,916.7,749.5L916.7,749.5z"/>
		<path class="st8" d="M922.1,749.4L922.1,749.4l-0.7,0c-0.3,0-0.6-0.3-0.6-0.6c0-0.3,0.3-0.6,0.6-0.6h0.4l7.5-7.7
			c0.2-0.2,0.6-0.2,0.8,0c0.2,0.2,0.2,0.6,0,0.8l-7.7,7.9C922.4,749.3,922.2,749.4,922.1,749.4L922.1,749.4z"/>
	</g>
	<path class="st3" d="M918.8,345c0,0.3-39.4,0.6-88,0.6s-88-0.3-88-0.6s39.4-0.6,88-0.6S918.8,344.6,918.8,345z"/>
	<path class="st3" d="M918.8,358.1c0,0.3-39.4,0.6-88,0.6s-88-0.3-88-0.6s39.4-0.6,88-0.6S918.8,357.8,918.8,358.1z"/>
	<path class="st3" d="M918.8,371.2c0,0.3-39.4,0.6-88,0.6s-88-0.3-88-0.6s39.4-0.6,88-0.6S918.8,370.9,918.8,371.2z"/>
	<g>
		<ellipse class="st4" cx="640" cy="700.7" rx="52.9" ry="53.7"/>
		<g>
			<g>
				<path class="st2" d="M615.3,714.1l13.8-1.2l33.8,5.8l4,25.9l-0.6,3c-16.4,9.2-34.7,9-50.2,1.2L615.3,714.1"/>
				<path class="st2" d="M655.8,718.3c0,0,10.7-2.1,17.5,7.8c4.2,6.1,6.3,10.2,6.3,10.2c-5.5,6.1-10,10.7-17.6,13.4L655.8,718.3
					L655.8,718.3z"/>
			</g>
			<path class="st2" d="M615.3,714.1c0,0-9.2,1.1-12.7,9.1c-3.6,7.9-4.4,10.4-4.4,10.4c4.7,5.8,10.8,12.6,18.1,15.2
				c0,0,1.7-20,1.9-25.6C618.5,717,618.8,714,615.3,714.1L615.3,714.1z"/>
		</g>
		<g>
			<g>
				<path class="st5" d="M623.7,663.3c5-6.1,11.6-9.7,19.4-9.8c4.4-0.1,6.2,0.8,9.4,1.7c3.2,0.9,6,2.6,7.9,5.3
					c2.3,3.2,4.1,6.9,4.6,10.8c0.4,4,0.9,8.1,0.6,12.2s-1.4,8.1-3.7,11.4l-10.2,1.8c-5.6,0.2-11.3,0.4-16.8-0.9
					c-5.5-1.3-10.8-4.3-13.7-9.2C617.1,679.9,618.8,669.4,623.7,663.3L623.7,663.3z"/>
				<path class="st5" d="M613.8,693.3c0.3-2.3,1.5-4.6,3.4-5.8c2-1.2,4.8-1.1,6.4,0.6l1.6,1.9c2.5,1.1,4.1,4,3.8,6.7
					c-0.3,2.7-2.4,5.2-5,6c-2.6,0.8-5.6,0-7.6-1.9C614.5,698.9,613.5,696,613.8,693.3z"/>
				<path class="st2" d="M615.8,700.2c0.1,0-0.6-0.7-0.5-2c0.1-1.3,1-3,2.3-4.6c1.3-1.6,2.9-2.7,4.1-3.3c1.2-0.7,2-0.9,2-1
					c0,0-0.9,0.1-2.1,0.7c-1.3,0.6-2.9,1.7-4.3,3.3c-0.7,0.8-1.2,1.7-1.6,2.5c-0.4,0.8-0.7,1.7-0.7,2.4c0,0.7,0.2,1.3,0.5,1.6
					C615.7,700.1,615.9,700.3,615.8,700.2L615.8,700.2z"/>
				<g>
					<path class="st6" d="M651.6,717.4c0,0,0-9.6,0-9.6c0,0,8.3-0.9,10.6-11.7c1.1-5.4,1.3-14.2,1.3-21.5c0-6.5-5.5-15.5-13.5-15.5
						l-3.5-0.4l-13.6,5.5c-2,0.1-3.5,1.7-3.6,3.7l-0.4,46l6.2,8.8C640.2,730,651.6,726.3,651.6,717.4L651.6,717.4L651.6,717.4z"/>
					<path class="st7" d="M646.1,692.7c0.1-0.6,0.4-1.1,0.8-1.4c0.8-0.7,2-0.8,2.8-0.2c0.8,0.6,1.3,1.8,1.2,3l0,0
						c-0.5,0.7-1.2,1.1-2,1.2c-0.1,0-0.3,0-0.4,0c-0.6,0-1.2-0.2-1.7-0.7C646.3,694.1,646,693.4,646.1,692.7L646.1,692.7z"/>
					<g>
						<path class="st5" d="M658.5,682.1c0,0.7-0.6,1.3-1.4,1.3s-1.4-0.6-1.3-1.3c0-0.7,0.6-1.3,1.4-1.3S658.5,681.4,658.5,682.1z"/>
						<path class="st5" d="M660.7,678.6c-0.2,0.2-1.2-0.7-2.7-0.8c-1.5-0.1-2.6,0.6-2.8,0.4c-0.1-0.1,0.1-0.4,0.6-0.7
							c0.5-0.3,1.3-0.6,2.2-0.6s1.7,0.4,2.1,0.8C660.7,678.2,660.8,678.6,660.7,678.6L660.7,678.6z"/>
						<path class="st5" d="M651.4,690c0-0.1,0.9-0.2,2.4-0.3c0.4,0,0.7-0.1,0.8-0.3c0.1-0.3,0-0.7-0.2-1.2c-0.3-1-0.6-1.9-1-3
							c-1.3-4.2-2.3-7.7-2.1-7.8c0.2,0,1.4,3.3,2.7,7.6c0.3,1,0.6,2,0.9,3c0.1,0.4,0.3,1,0.1,1.5c-0.1,0.3-0.4,0.5-0.7,0.5
							c-0.3,0.1-0.5,0-0.7,0C652.4,690.1,651.4,690.1,651.4,690L651.4,690z"/>
						<path class="st7" d="M651.5,707.8c0,0-7.2,0.1-14.2-4.7c0,0,3.4,7.8,14.2,7.3L651.5,707.8L651.5,707.8z"/>
						<path class="st5" d="M647,690.8c0.2,0,0.2,1.6,1.5,2.9c1.3,1.2,3,1.2,3,1.4c0,0.1-0.4,0.3-1.1,0.3c-0.7,0-1.7-0.3-2.5-1.1
							c-0.8-0.8-1.1-1.7-1.1-2.4C646.7,691.2,646.9,690.8,647,690.8z"/>
						<path class="st5" d="M660.4,673c-0.3,0.3-1.4,0-2.7,0.1c-1.3,0-2.5,0.3-2.7,0c-0.1-0.2,0-0.5,0.5-0.9c0.5-0.3,1.3-0.6,2.2-0.7
							c0.9,0,1.7,0.3,2.2,0.6C660.4,672.5,660.6,672.8,660.4,673L660.4,673z"/>
						<path class="st5" d="M642.3,682c0,0.7,0.5,1.4,1.3,1.4c0.8,0,1.4-0.5,1.4-1.2c0-0.7-0.5-1.4-1.3-1.4
							C642.9,680.7,642.3,681.3,642.3,682z"/>
						<path class="st5" d="M640.5,678.1c0.2,0.2,1.2-0.6,2.7-0.5c1.5,0,2.6,0.8,2.7,0.6c0.1-0.1-0.1-0.4-0.6-0.8
							c-0.5-0.4-1.3-0.7-2.2-0.7c-0.9,0-1.7,0.3-2.2,0.7C640.5,677.7,640.4,678,640.5,678.1L640.5,678.1z"/>
						<path class="st5" d="M639.6,674.9c0.3,0.3,1.4,0,2.8,0c1.4,0,2.5,0.3,2.8-0.1c0.1-0.2-0.1-0.5-0.6-0.8
							c-0.5-0.3-1.3-0.6-2.3-0.6s-1.8,0.3-2.3,0.7C639.6,674.4,639.5,674.7,639.6,674.9L639.6,674.9z"/>
					</g>
					<g>
						<path class="st6" d="M631,685.2c0-0.8-0.8-2.8-1.6-2.9c-2.1-0.5-5.9-0.5-6.2,4.9c-0.5,7.4,7,6.3,7,6.1
							C630.3,693.2,630.9,688,631,685.2L631,685.2z"/>
						<path class="st7" d="M628.4,690.5c0,0-0.1,0.1-0.3,0.2c-0.2,0.1-0.6,0.1-1,0c-0.8-0.3-1.3-1.6-1.3-3c0-0.7,0.2-1.3,0.5-1.8
							c0.3-0.5,0.6-0.9,1-0.9c0.4-0.1,0.7,0.2,0.7,0.4c0.1,0.2,0,0.4,0.1,0.4c0,0,0.2-0.1,0.1-0.4c0-0.2-0.1-0.3-0.3-0.5
							c-0.2-0.2-0.4-0.3-0.7-0.2c-0.6,0-1.1,0.5-1.4,1.1c-0.3,0.6-0.5,1.3-0.6,2c0,1.5,0.6,2.9,1.7,3.3c0.5,0.2,0.9,0,1.2-0.1
							C628.4,690.7,628.4,690.5,628.4,690.5L628.4,690.5z"/>
					</g>
				</g>
				<path class="st5" d="M629.1,682.3l1.9,2c8-7.8,23.7-27.3,22.8-26.1c0,0-5.5-2.3-11.5-1.3c-6,1-17.3,4.1-17.1,11.2
					C625.4,675.2,629.1,682.3,629.1,682.3z"/>
			</g>
			<path class="st2" d="M618.5,680.7c0,0,0-0.2,0.1-0.4c0.1-0.3,0.2-0.7,0.5-1.2c0.5-1,1.5-2.3,3.1-3.5c1.5-1.2,3.7-2.2,6.2-3
				c2.5-0.8,5.2-1.4,7.9-2.6c2.7-1.1,5.2-2.6,7.2-4.1c2.1-1.5,3.8-3.1,5.1-4.5c1.3-1.4,2.3-2.7,3-3.5c0.3-0.4,0.5-0.8,0.7-1
				c0.2-0.2,0.3-0.3,0.3-0.3c0,0-0.1,0.1-0.2,0.4c-0.2,0.2-0.4,0.6-0.7,1.1c-0.6,0.9-1.6,2.2-2.9,3.6s-3,3.1-5.1,4.6
				c-2.1,1.5-4.5,3-7.3,4.2c-2.7,1.2-5.5,1.8-8,2.6c-2.4,0.8-4.6,1.7-6.1,2.9c-1.6,1.1-2.5,2.4-3.1,3.3
				C618.7,680.1,618.6,680.7,618.5,680.7L618.5,680.7z"/>
			<path class="st2" d="M620.7,681.8c0,0-0.1-0.6,0.3-1.6c0.3-1,1.2-2.4,2.8-3.5c1.5-1.2,3.7-1.9,6.1-2.4c2.4-0.5,5-1.2,7.6-2.4
				c2.6-1.2,4.9-2.7,6.8-4.2c1.9-1.6,3.5-3.2,4.6-4.6c1.2-1.4,2-2.7,2.6-3.6c0.3-0.4,0.5-0.8,0.6-1c0.2-0.2,0.2-0.4,0.2-0.3
				c0,0,0,0.1-0.2,0.4c-0.2,0.3-0.3,0.6-0.6,1.1c-0.5,0.9-1.3,2.2-2.5,3.7c-1.2,1.5-2.7,3.1-4.6,4.7c-1.9,1.6-4.2,3.1-6.8,4.3
				c-2.6,1.2-5.3,1.9-7.7,2.4c-2.4,0.5-4.5,1.2-6,2.3c-1.5,1.1-2.4,2.4-2.8,3.3C620.7,681.2,620.7,681.8,620.7,681.8L620.7,681.8z"
				/>
		</g>
		<path class="st5" d="M616.4,748.8c-0.1,0-0.2-3.2-0.2-7.1s0.1-7.1,0.2-7.1s0.2,3.2,0.2,7.1S616.5,748.8,616.4,748.8z"/>
		<path class="st5" d="M666.5,747.8c-0.1,0,0-1,0.1-2.5c0.1-1.5,0.2-3.7-0.2-6c-0.4-2.3-1.2-4.3-1.7-5.8c-0.6-1.5-0.9-2.3-0.8-2.4
			c0.1,0,0.5,0.8,1.2,2.2c0.6,1.4,1.5,3.5,1.9,5.8c0.4,2.4,0.2,4.6,0.1,6.1C666.7,746.9,666.5,747.8,666.5,747.8L666.5,747.8z"/>
	</g>
	<path class="st0" d="M921.1,732.3H740.8c-9,0-16.2-7.4-16.2-16.5v-40.4l-19.9-17.9h216.5c9,0,16.2,7.4,16.2,16.5v41.8
		C937.4,724.9,930.1,732.3,921.1,732.3L921.1,732.3z"/>
	<path class="st3" d="M918.8,679.5c0,0.3-39.4,0.6-88,0.6s-88-0.3-88-0.6s39.4-0.6,88-0.6S918.8,679.2,918.8,679.5z"/>
	<path class="st3" d="M918.8,692.6c0,0.3-39.4,0.6-88,0.6s-88-0.3-88-0.6s39.4-0.6,88-0.6S918.8,692.3,918.8,692.6z"/>
	<path class="st3" d="M918.8,705.8c0,0.3-39.4,0.6-88,0.6s-88-0.3-88-0.6s39.4-0.6,88-0.6S918.8,705.4,918.8,705.8z"/>
	<path class="st3" d="M918.8,384.4c0,0.3-39.4,0.6-88,0.6s-88-0.3-88-0.6s39.4-0.6,88-0.6S918.8,384,918.8,384.4z"/>
	<path class="st3" d="M918.8,397.5c0,0.3-39.4,0.6-88,0.6s-88-0.3-88-0.6s39.4-0.6,88-0.6S918.8,397.2,918.8,397.5z"/>
	<path class="st3" d="M918.8,413.3c0,0.3-39.4,0.6-88,0.6s-88-0.3-88-0.6s39.4-0.6,88-0.6S918.8,412.9,918.8,413.3z"/>
	<g>
		<path class="st5" d="M743.9,185.2c0-5.2,4-9,9.3-9c3,0,5.4,1.1,7,3.1l-2.5,2.4c-1.2-1.3-2.6-2-4.3-2c-3.2,0-5.5,2.3-5.5,5.6
			s2.3,5.6,5.5,5.6c1.7,0,3.2-0.7,4.3-2.1l2.5,2.4c-1.6,2-4.1,3.1-7.1,3.1C747.8,194.1,743.9,190.4,743.9,185.2L743.9,185.2z"/>
		<path class="st5" d="M776,186.2v7.6h-3.8v-7c0-2.2-1-3.1-2.7-3.1c-1.8,0-3.2,1.1-3.2,3.6v6.6h-3.8v-18.4h3.8v6.4
			c1-1,2.5-1.6,4.2-1.6C773.6,180.3,776,182.2,776,186.2L776,186.2z"/>
		<path class="st5" d="M791,186.2v7.6h-3.6v-1.7c-0.7,1.2-2.1,1.9-4,1.9c-3.1,0-4.9-1.7-4.9-4s1.6-4,5.6-4h3c0-1.7-1-2.6-3-2.6
			c-1.4,0-2.8,0.5-3.8,1.2l-1.4-2.7c1.4-1,3.6-1.6,5.7-1.6C788.7,180.3,791,182.2,791,186.2L791,186.2z M787.2,189.6v-1.4h-2.6
			c-1.8,0-2.3,0.7-2.3,1.6c0,1,0.8,1.6,2.2,1.6C785.7,191.4,786.8,190.8,787.2,189.6L787.2,189.6z"/>
		<path class="st5" d="M803,193.2c-0.8,0.6-1.9,0.8-3.1,0.8c-3.1,0-4.9-1.6-4.9-4.8v-5.5h-2v-3h2v-3.3h3.8v3.3h3.3v3h-3.3v5.4
			c0,1.1,0.6,1.8,1.6,1.8c0.6,0,1.1-0.2,1.5-0.5L803,193.2L803,193.2z"/>
	</g>
	<path class="st5" d="M870.3,211.9c0,0.3-40.2,0.6-89.8,0.6s-89.8-0.3-89.8-0.6s40.2-0.6,89.8-0.6S870.3,211.6,870.3,211.9z"/>
	<ellipse class="st5" cx="949.9" cy="180.9" rx="4.2" ry="4.3"/>
	<path class="st5" d="M954.1,193.3c0,2.4-1.9,4.3-4.2,4.3s-4.2-1.9-4.2-4.3s1.9-4.3,4.2-4.3S954.1,190.9,954.1,193.3z"/>
	<path class="st5" d="M954.1,205.7c0,2.4-1.9,4.3-4.2,4.3s-4.2-1.9-4.2-4.3s1.9-4.3,4.2-4.3S954.1,203.3,954.1,205.7z"/>
	<path class="st5" d="M610.2,195.3c-0.2,0-0.5-0.1-0.7-0.2l-11.1-8.3c-0.3-0.2-0.5-0.6-0.5-1s0.2-0.7,0.5-1l11.1-8.1
		c0.5-0.4,1.3-0.3,1.7,0.3c0.4,0.5,0.3,1.3-0.3,1.7l-9.8,7.1l9.8,7.3c0.5,0.4,0.6,1.1,0.3,1.7C611,195.1,610.6,195.3,610.2,195.3
		L610.2,195.3z"/>
	<ellipse class="st4" cx="899" cy="544.7" rx="52.9" ry="53.7"/>
	<g>
		<path class="st5" d="M913.5,576.4h-27.8c-2,0-3.6-1.6-3.6-3.7l0,0c0-2,1.6-3.7,3.6-3.7h27.8c2,0,3.6,1.6,3.6,3.7l0,0
			C917.1,574.8,915.5,576.4,913.5,576.4z"/>
		<rect x="898.7" y="509.8" class="st5" width="2.5" height="12.6"/>
		<ellipse class="st8" cx="863.9" cy="552.7" rx="7.2" ry="7.3"/>
		<ellipse class="st8" cx="936.4" cy="552.3" rx="7.2" ry="7.3"/>
		<path class="st8" d="M901,519.7c0,0,29.2-0.4,33.8,25.3c4.6,25.7-20.1,26.2-27.2,26.7c-3.2,0.2-10.1,0.2-16.2,0.1
			c-13.5-0.2-23-2.9-26.2-15.6c-0.4-1.5-0.6-3-0.7-4.5C863.7,537.9,873,519,901,519.7L901,519.7z"/>
		<path class="st5" d="M879.8,558.9l42.4,0.7c4.5,0.1,8.1-3.5,8.2-8l0,0c0.1-4.5-3.5-8.2-7.9-8.3l-42.4-0.7c-4.5-0.1-8.1,3.5-8.2,8
			l0,0C871.8,555.1,875.4,558.8,879.8,558.9z"/>
		<path class="st3" d="M913.5,550.6c0.3,1.4,1.6,2.3,3,2.1c1.4-0.3,2.3-1.7,2-3.1c-0.3-1.4-1.6-2.3-3-2.1
			C914.1,547.8,913.2,549.2,913.5,550.6z"/>
		<path class="st3" d="M883.8,550.1c0.3,1.4,1.6,2.3,3,2.1c1.4-0.3,2.3-1.7,2-3.1c-0.3-1.4-1.6-2.3-3-2.1
			C884.5,547.3,883.6,548.7,883.8,550.1z"/>
		<path class="st8" d="M904,509.5c0,2.3-1.8,4.1-4,4.1s-4-1.8-4-4.1s1.8-4.1,4-4.1S904,507.3,904,509.5L904,509.5z"/>
		<path class="st3" d="M906,549.4c0.1,0,0.2,0.2,0.3,0.6c0.1,0.4,0.1,1.1-0.2,1.8s-0.7,1.6-1.4,2.3c-0.7,0.7-1.8,1.3-3,1.5
			c-1.2,0.1-2.4-0.3-3.3-0.9c-0.9-0.6-1.5-1.3-1.8-2c-0.3-0.7-0.5-1.3-0.5-1.8s0.1-0.7,0.1-0.7c0.2,0,0.2,0.9,1,2
			c0.4,0.5,0.9,1.1,1.7,1.6c0.7,0.4,1.7,0.7,2.6,0.6c0.9-0.1,1.8-0.5,2.5-1.1s1.1-1.2,1.4-1.8C906,550.3,905.8,549.4,906,549.4
			L906,549.4z"/>
		<path class="st5" d="M934.8,544.2c0,0,0.1,0.2,0.2,0.6c0.1,0.2,0.2,0.5,0.2,0.8c0.1,0.3,0.2,0.6,0.2,1c0.2,0.8,0.3,1.7,0.4,2.7
			c0.1,1,0.1,2.2,0,3.3c-0.1,1.2-0.3,2.3-0.5,3.3c-0.3,1-0.5,1.9-0.8,2.6c-0.1,0.4-0.3,0.7-0.4,1s-0.2,0.5-0.3,0.7
			c-0.2,0.4-0.3,0.6-0.3,0.6c0,0,0.1-0.2,0.3-0.6c0.1-0.2,0.2-0.4,0.3-0.7c0.1-0.3,0.3-0.6,0.4-1c0.3-0.7,0.5-1.6,0.8-2.6
			c0.2-1,0.4-2.1,0.5-3.3c0.1-1.2,0.1-2.3,0-3.3c-0.1-1-0.2-1.9-0.3-2.7c-0.1-0.4-0.1-0.7-0.2-1c-0.1-0.3-0.1-0.6-0.2-0.8
			C934.8,544.5,934.8,544.2,934.8,544.2L934.8,544.2z"/>
		<path class="st5" d="M865.6,544.4c0,0-0.1,0.2-0.2,0.6c-0.1,0.2-0.2,0.5-0.2,0.8c-0.1,0.3-0.2,0.6-0.2,1c-0.2,0.8-0.3,1.7-0.4,2.7
			c-0.1,1-0.1,2.2,0,3.3c0.1,1.2,0.3,2.3,0.5,3.3c0.3,1,0.5,1.9,0.8,2.6c0.1,0.4,0.3,0.7,0.4,1s0.2,0.5,0.3,0.7
			c0.2,0.4,0.3,0.6,0.3,0.6c0,0-0.1-0.2-0.3-0.6c-0.1-0.2-0.2-0.4-0.3-0.7c-0.1-0.3-0.3-0.6-0.4-1c-0.3-0.7-0.5-1.6-0.8-2.6
			c-0.2-1-0.4-2.1-0.5-3.3c-0.1-1.2-0.1-2.3,0-3.3c0.1-1,0.2-1.9,0.3-2.7c0.1-0.4,0.1-0.7,0.2-1c0.1-0.3,0.1-0.6,0.2-0.8
			C865.6,544.6,865.6,544.4,865.6,544.4L865.6,544.4z"/>
		<path class="st8" d="M871.9,590.8c0,0,8.7-8.6,26.8-8.6s27.4,8.6,27.4,8.6S900.9,608.1,871.9,590.8z"/>
	</g>
	<path class="st0" d="M609.4,599.4h180.4c9,0,16.2-7.4,16.2-16.5v-53.2l19.9-17.9H609.4c-9,0-16.2,7.4-16.2,16.5v54.6
		C593.2,592,600.5,599.4,609.4,599.4z"/>
	<path class="st3" d="M781.8,537.8c0,0.3-37.2,0.6-83,0.6s-83-0.3-83-0.6s37.1-0.6,83-0.6S781.8,537.5,781.8,537.8L781.8,537.8z"/>
	<path class="st3" d="M781.8,552c0,0.3-37.2,0.6-83,0.6s-83-0.3-83-0.6s37.1-0.6,83-0.6S781.8,551.7,781.8,552L781.8,552z"/>
	<path class="st3" d="M781.8,566.3c0,0.3-37.2,0.6-83,0.6s-83-0.3-83-0.6s37.1-0.6,83-0.6S781.8,565.9,781.8,566.3L781.8,566.3z"/>
	<path class="st3" d="M781.8,580.5c0,0.3-37.2,0.6-83,0.6s-83-0.3-83-0.6s37.1-0.6,83-0.6S781.8,580.2,781.8,580.5L781.8,580.5z"/>
	<ellipse class="st4" cx="899" cy="842.6" rx="52.9" ry="53.7"/>
	<g>
		<path class="st5" d="M913.5,874.3h-27.8c-2,0-3.6-1.6-3.6-3.7l0,0c0-2,1.6-3.7,3.6-3.7h27.8c2,0,3.6,1.6,3.6,3.7l0,0
			C917.1,872.6,915.5,874.3,913.5,874.3z"/>
		<rect x="898.7" y="807.7" class="st5" width="2.5" height="12.6"/>
		<ellipse class="st8" cx="863.9" cy="850.6" rx="7.2" ry="7.3"/>
		<ellipse class="st8" cx="936.4" cy="850.1" rx="7.2" ry="7.3"/>
		<path class="st8" d="M901,817.6c0,0,29.2-0.4,33.8,25.3c4.6,25.7-20.1,26.2-27.2,26.7c-3.2,0.2-10.1,0.2-16.2,0.1
			c-13.5-0.2-23-2.9-26.2-15.6c-0.4-1.5-0.6-3-0.7-4.5C863.7,835.7,873,816.9,901,817.6L901,817.6z"/>
		<path class="st5" d="M879.8,856.8l42.4,0.7c4.5,0.1,8.1-3.5,8.2-8l0,0c0.1-4.5-3.5-8.2-7.9-8.3l-42.4-0.7c-4.5-0.1-8.1,3.5-8.2,8
			l0,0C871.8,853,875.4,856.7,879.8,856.8z"/>
		<path class="st3" d="M913.5,848.5c0.3,1.4,1.6,2.3,3,2.1c1.4-0.3,2.3-1.7,2-3.1c-0.3-1.4-1.6-2.3-3-2.1
			C914.1,845.7,913.2,847.1,913.5,848.5z"/>
		<path class="st3" d="M883.8,848c0.3,1.4,1.6,2.3,3,2.1c1.4-0.3,2.3-1.7,2-3.1c-0.3-1.4-1.6-2.3-3-2.1
			C884.5,845.2,883.6,846.6,883.8,848z"/>
		<path class="st8" d="M904,807.4c0,2.3-1.8,4.1-4,4.1s-4-1.8-4-4.1s1.8-4.1,4-4.1S904,805.2,904,807.4z"/>
		<path class="st3" d="M906,847.3c0.1,0,0.2,0.2,0.3,0.6c0.1,0.4,0.1,1.1-0.2,1.8s-0.7,1.6-1.4,2.3c-0.7,0.7-1.8,1.3-3,1.5
			c-1.2,0.1-2.4-0.3-3.3-0.9c-0.9-0.6-1.5-1.3-1.8-2c-0.3-0.7-0.5-1.3-0.5-1.8s0.1-0.7,0.1-0.7c0.2,0,0.2,0.9,1,2
			c0.4,0.5,0.9,1.1,1.7,1.6c0.7,0.4,1.7,0.7,2.6,0.6c0.9-0.1,1.8-0.5,2.5-1.1s1.1-1.2,1.4-1.8C906,848.2,905.8,847.3,906,847.3
			L906,847.3z"/>
		<path class="st5" d="M934.8,842.1c0,0,0.1,0.2,0.2,0.6c0.1,0.2,0.2,0.5,0.2,0.8c0.1,0.3,0.2,0.6,0.2,1c0.2,0.8,0.3,1.7,0.4,2.7
			c0.1,1,0.1,2.2,0,3.3c-0.1,1.2-0.3,2.3-0.5,3.3c-0.3,1-0.5,1.9-0.8,2.6c-0.1,0.4-0.3,0.7-0.4,1s-0.2,0.5-0.3,0.7
			c-0.2,0.4-0.3,0.6-0.3,0.6c0,0,0.1-0.2,0.3-0.6c0.1-0.2,0.2-0.4,0.3-0.7c0.1-0.3,0.3-0.6,0.4-1c0.3-0.7,0.5-1.6,0.8-2.6
			c0.2-1,0.4-2.1,0.5-3.3c0.1-1.2,0.1-2.3,0-3.3c-0.1-1-0.2-1.9-0.3-2.7c-0.1-0.4-0.1-0.7-0.2-1c-0.1-0.3-0.1-0.6-0.2-0.8
			C934.8,842.3,934.8,842.1,934.8,842.1L934.8,842.1z"/>
		<path class="st5" d="M865.6,842.3c0,0-0.1,0.2-0.2,0.6c-0.1,0.2-0.2,0.5-0.2,0.8c-0.1,0.3-0.2,0.6-0.2,1c-0.2,0.8-0.3,1.7-0.4,2.7
			c-0.1,1-0.1,2.2,0,3.3c0.1,1.2,0.3,2.3,0.5,3.3c0.3,1,0.5,1.9,0.8,2.6c0.1,0.4,0.3,0.7,0.4,1s0.2,0.5,0.3,0.7
			c0.2,0.4,0.3,0.6,0.3,0.6c0,0-0.1-0.2-0.3-0.6c-0.1-0.2-0.2-0.4-0.3-0.7c-0.1-0.3-0.3-0.6-0.4-1c-0.3-0.7-0.5-1.6-0.8-2.6
			c-0.2-1-0.4-2.1-0.5-3.3c-0.1-1.2-0.1-2.3,0-3.3c0.1-1,0.2-1.9,0.3-2.7c0.1-0.4,0.1-0.7,0.2-1c0.1-0.3,0.1-0.6,0.2-0.8
			C865.6,842.5,865.6,842.3,865.6,842.3L865.6,842.3z"/>
		<path class="st8" d="M871.9,888.6c0,0,8.7-8.6,26.8-8.6s27.4,8.6,27.4,8.6S900.9,906,871.9,888.6z"/>
	</g>
	<path class="st0" d="M609.4,897.3h180.4c9,0,16.2-7.4,16.2-16.5v-53.2l19.9-17.9H609.4c-9,0-16.2,7.4-16.2,16.5v54.6
		C593.2,889.9,600.5,897.3,609.4,897.3z"/>
	<path class="st0" d="M609.4,980.4h180.4c9,0,16.2-7.4,16.2-16.5v-17.6l19.9-17.9H609.4c-9,0-16.2,7.4-16.2,16.5v19.1
		C593.2,973,600.5,980.4,609.4,980.4L609.4,980.4z"/>
	<path class="st3" d="M781.8,835.7c0,0.3-37.2,0.6-83,0.6s-83-0.3-83-0.6s37.1-0.6,83-0.6S781.8,835.4,781.8,835.7L781.8,835.7z"/>
	<path class="st3" d="M781.8,849.9c0,0.3-37.2,0.6-83,0.6s-83-0.3-83-0.6s37.1-0.6,83-0.6S781.8,849.6,781.8,849.9L781.8,849.9z"/>
	<path class="st3" d="M781.8,864.2c0,0.3-37.2,0.6-83,0.6s-83-0.3-83-0.6s37.1-0.6,83-0.6S781.8,863.8,781.8,864.2L781.8,864.2z"/>
	<path class="st3" d="M781.8,878.4c0,0.3-37.2,0.6-83,0.6s-83-0.3-83-0.6s37.1-0.6,83-0.6S781.8,878.1,781.8,878.4L781.8,878.4z"/>
	<path class="st3" d="M782.3,955.2c0,0.3-36.8,0.6-82.1,0.6s-82.1-0.3-82.1-0.6s36.8-0.6,82.1-0.6S782.3,954.8,782.3,955.2z"/>
</g>
<g>
	<g>
		<path class="st9" d="M236.9,298l-8.7-27.7c8.9-14.6,14-31.9,14-50.3c0-53.1-42.4-96.1-94.6-96.1S53,166.9,53,220
			s42.3,96.1,94.6,96.1c21.8,0,41.9-7.5,57.9-20.1l0,0L236.9,298z"/>
		<path class="st5" d="M236.9,298c0,0-0.6,0-2-0.1c-1.4-0.1-3.4-0.2-6-0.3c-5.4-0.3-13.3-0.7-23.5-1.3c-0.1,0-0.3-0.1-0.3-0.3
			c0-0.1,0-0.1,0.1-0.1l0,0l0.4,0.4c-9.7,7.6-24,15.9-42.7,19c-4.7,0.8-9.6,1.3-14.6,1.3c-5.1-0.2-10.4-0.2-15.7-1.3
			c-10.7-1.7-21.8-5.4-32.3-11.5c-10.5-6.1-20.3-14.6-28.3-25.2c-8-10.6-14.1-23.4-17.2-37.4c-3.2-14-3.1-29.1,0.4-43.8
			c0.5-1.8,0.9-3.7,1.4-5.5c0.5-1.8,1.3-3.6,1.9-5.4c0.7-1.8,1.2-3.6,2.1-5.3c0.8-1.7,1.6-3.5,2.5-5.2c0.8-1.8,1.8-3.4,2.8-5.1l3-5
			l3.4-4.7l1.7-2.4c0.6-0.8,1.3-1.5,1.9-2.2c10.4-12,23.4-21.4,37.6-26.8c14.1-5.5,29.2-7.4,43.4-6c14.3,1.4,27.7,6.2,39.2,13.1
			c11.5,6.9,21,16.1,28.2,26.1c7.2,10,12.1,21,15,31.7c1.6,5.3,2.2,10.7,2.9,15.8c0.2,5.2,0.6,10.2,0.3,15c-1.1,19.3-7.7,34.6-14,45
			l0-0.2c2.8,9,4.9,16,6.4,20.7c0.7,2.3,1.2,4,1.6,5.3C236.8,297.5,236.9,298,236.9,298c0,0-0.2-0.6-0.6-1.8c-0.4-1.2-1-3-1.7-5.3
			c-1.5-4.7-3.7-11.5-6.6-20.5c0-0.1,0-0.1,0-0.2c6.2-10.4,12.6-25.6,13.7-44.7c0.4-4.8-0.1-9.7-0.3-14.9
			c-0.7-5.1-1.4-10.4-2.9-15.7c-2.9-10.6-7.7-21.4-14.9-31.3c-7.1-9.9-16.6-18.9-28-25.7c-11.4-6.8-24.6-11.6-38.7-12.9
			c-14.1-1.3-28.9,0.6-42.9,6c-14,5.3-26.8,14.6-37.1,26.4c-0.6,0.7-1.3,1.4-1.9,2.2l-1.7,2.3l-3.4,4.6l-2.9,4.9c-1,1.6-2,3.2-2.8,5
			c-0.8,1.7-1.6,3.4-2.4,5.1c-0.9,1.7-1.3,3.5-2,5.3c-0.6,1.8-1.3,3.5-1.9,5.3c-0.5,1.8-0.9,3.6-1.4,5.4
			c-3.5,14.5-3.5,29.5-0.4,43.3c3.1,13.8,9.1,26.5,17,37c7.9,10.5,17.6,19,27.9,25c10.4,6.1,21.3,9.8,31.9,11.5
			c5.3,1,10.5,1.1,15.5,1.3c5,0,9.9-0.4,14.5-1.2c18.6-3,32.8-11.1,42.5-18.7c0.1-0.1,0.3-0.1,0.4,0c0.1,0.1,0.1,0.2,0,0.3l0,0
			l-0.2-0.4c10.2,0.7,18,1.3,23.3,1.6c2.6,0.2,4.6,0.3,6,0.4C236.2,298,236.9,298,236.9,298L236.9,298z"/>
	</g>
	<g>
		<path class="st5" d="M120.9,220c0,5.4-4.3,9.8-9.6,9.8s-9.6-4.4-9.6-9.8s4.3-9.8,9.6-9.8S120.9,214.6,120.9,220z"/>
		<path class="st5" d="M159.4,220c0,5.4-4.3,9.8-9.6,9.8s-9.6-4.4-9.6-9.8s4.3-9.8,9.6-9.8S159.4,214.6,159.4,220z"/>
		<path class="st5" d="M197.7,215.1c2.6,4.7,1.1,10.6-3.5,13.3s-10.5,1.1-13.1-3.6c-2.6-4.7-1.1-10.6,3.5-13.3
			S195.1,210.4,197.7,215.1z"/>
	</g>
</g>
<g>
	<g>
		<path class="st8" d="M201.6,651.2l-99.5-10.6l-42-97l-32.7,8.7c0,0,24.2,102.5,51.2,118.4S198,689.4,198,689.4L201.6,651.2z"/>
		<g>
			<ellipse class="st5" cx="221.5" cy="670.7" rx="44.1" ry="44.8"/>
			<path class="st5" d="M221.5,715.5c-11.8,0-22.9-4.7-31.2-13.1c-8.3-8.5-12.9-19.7-12.9-31.7s4.6-23.2,12.9-31.7
				c8.3-8.5,19.4-13.1,31.2-13.1s22.9,4.7,31.2,13.1c8.3,8.5,12.9,19.7,12.9,31.7s-4.6,23.2-12.9,31.7
				C244.3,710.8,233.2,715.5,221.5,715.5L221.5,715.5z M221.5,625.9c-11.8,0-22.8,4.7-31.1,13.1c-8.3,8.5-12.9,19.7-12.9,31.6
				s4.6,23.2,12.9,31.6c8.3,8.5,19.4,13.1,31.1,13.1s22.8-4.7,31.1-13.1c8.3-8.5,12.9-19.7,12.9-31.6s-4.6-23.2-12.9-31.6
				C244.3,630.6,233.2,625.9,221.5,625.9z"/>
		</g>
		<ellipse class="st5" cx="85.5" cy="645.7" rx="33.1" ry="33.6"/>
		<ellipse class="st5" cx="41.3" cy="532" rx="27" ry="27.4"/>
		<path class="st5" d="M61.2,536.2l22.2-19c2.4-2.1,2.8-5.8,0.7-8.3l-0.6-0.7c-2.1-2.5-5.7-2.8-8.2-0.7l-22.2,19L61.2,536.2
			L61.2,536.2z"/>
		<path class="st5" d="M55.2,478.8v32.6c0,0.2-0.2,0.3-0.4,0.3H43.1c-0.2,0-0.4-0.2-0.4-0.3v-32.6c0-1.4,1.1-2.5,2.5-2.5h7.5
			C54.1,476.3,55.2,477.4,55.2,478.8z"/>
		<path class="st5" d="M41.3,510.3l-6.2-28c-0.7-3.2-3.8-5.2-6.9-4.5l-0.8,0.2c-3.1,0.7-5.1,3.9-4.4,7l6.2,28c0.1,0.5,0.5,0.7,1,0.6
			l10.5-2.4C41.1,511.2,41.4,510.8,41.3,510.3z"/>
		<path class="st5" d="M27.7,514.2l-14.1-24.8c-1.6-2.8-5.1-3.8-7.9-2.1L5,487.6c-2.8,1.6-3.7,5.2-2.1,8L17,520.5
			c0.2,0.4,0.7,0.5,1.1,0.3l9.3-5.5C27.8,515.1,28,514.6,27.7,514.2L27.7,514.2z"/>
	</g>
	<g>
		<polygon class="st8" points="663.3,889.6 633.5,902.5 547.7,697.5 577.4,684.6 		"/>
		<g>
			<ellipse class="st5" cx="548" cy="675.3" rx="44.1" ry="44.8"/>
			<path class="st5" d="M548.1,720.2c-4.4,0-8.8-0.7-13.1-2c-11.3-3.5-20.5-11.3-26-21.9s-6.6-22.7-3.1-34.2
				c3.5-11.4,11.1-20.8,21.6-26.4c10.4-5.6,22.4-6.7,33.6-3.2c11.3,3.5,20.5,11.3,26,21.9s6.6,22.7,3.2,34.2
				c-3.5,11.4-11.1,20.8-21.5,26.4C562.2,718.4,555.2,720.2,548.1,720.2L548.1,720.2z M548,630.6c-7.1,0-14.1,1.8-20.5,5.2
				c-10.4,5.6-18,14.9-21.5,26.3c-3.5,11.4-2.4,23.5,3.1,34.1c5.5,10.6,14.7,18.3,25.9,21.8c11.2,3.5,23.2,2.4,33.5-3.2
				c10.4-5.6,18-14.9,21.5-26.3l0.1,0l-0.1,0c3.5-11.4,2.3-23.5-3.2-34.1c-5.5-10.6-14.7-18.3-26-21.8
				C556.7,631.2,552.3,630.6,548,630.6L548,630.6z"/>
		</g>
		<ellipse class="st5" cx="605.5" cy="800.2" rx="33.1" ry="33.6"/>
		<g>
			<path class="st5" d="M680.9,896c-4.7-14.4-20-22.1-34.2-17.3c-14.2,4.8-21.8,20.3-17.1,34.7s20,22.1,34.2,17.3
				C678,925.9,685.6,910.3,680.9,896z"/>
			<path class="st5" d="M635.1,907.1L620,932.3c-1.7,2.8-0.8,6.4,1.9,8.1l0.7,0.5c2.7,1.7,6.3,0.8,8-2l15.1-25.2L635.1,907.1z"/>
			<path class="st5" d="M648.7,929.2l8.9,27.2c1,3.1,4.3,4.7,7.3,3.7l0.8-0.3c3-1,4.7-4.4,3.7-7.4l-8.9-27.2
				c-0.2-0.4-0.6-0.7-1.1-0.5l-10.2,3.5C648.8,928.2,648.6,928.7,648.7,929.2L648.7,929.2z"/>
			<path class="st5" d="M662.1,925.2l14.6,24.6c1.7,2.8,5.2,3.7,8,2l0.7-0.4c2.7-1.7,3.6-5.3,2-8.1l-14.6-24.6
				c-0.2-0.4-0.8-0.5-1.2-0.3l-9.2,5.6C662,924.3,661.8,924.8,662.1,925.2L662.1,925.2z"/>
			<path class="st5" d="M673.8,917.2l21.1,19c2.4,2.2,6,1.9,8.2-0.5l0.6-0.6c2.1-2.4,1.9-6.2-0.5-8.3l-21.1-19
				c-0.3-0.3-0.9-0.3-1.2,0.1l-7.1,8.2C673.4,916.4,673.4,916.9,673.8,917.2L673.8,917.2z"/>
		</g>
	</g>
	<path class="st8" d="M208.3,624.1c0,0,3.2,314.3,176.8,320.5S566,626.3,566,624.1c0,0-20.5-46.9-178.9-45
		C228.8,580.9,208.3,624.1,208.3,624.1L208.3,624.1z"/>
	<path class="st5" d="M462.6,568.7H295.8c-4.1,0-7.4-3.3-7.4-7.3v-23.1c0-4.1,3.3-7.3,7.4-7.3h166.8c4.1,0,7.4,3.3,7.4,7.3v23.1
		C470,565.4,466.7,568.7,462.6,568.7z"/>
	<rect x="372.9" y="224.1" class="st5" width="12.7" height="65.1"/>
	<ellipse class="st8" cx="564.4" cy="446.1" rx="37.2" ry="37.8"/>
	<ellipse class="st8" cx="188.5" cy="443.6" rx="37.2" ry="37.8"/>
	<path class="st8" d="M371.9,275.1c0,0-151.4-1.9-175.4,131.4s104.1,135.7,140.9,138.2c16.7,1.1,52.4,1.3,83.9,0.7
		c69.8-1.2,119.1-15,135.9-80.7c2-7.7,3.3-15.5,3.8-23.6C565.4,369,517.4,271.6,371.9,275.1L371.9,275.1z"/>
	<path class="st5" d="M481.7,478l-219.9,3.5c-23.1,0.4-42-18.3-42.4-41.7l0,0c-0.4-23.4,18-42.7,41.1-43.1l219.9-3.5
		c23-0.4,42,18.3,42.4,41.7l0,0C523.2,458.4,504.8,477.6,481.7,478L481.7,478z"/>
	<path class="st3" d="M307.4,435.1c-1.4,7.4-8.5,12.2-15.7,10.7c-7.3-1.5-12-8.6-10.6-16c1.4-7.4,8.5-12.2,15.7-10.7
		C304.1,420.6,308.8,427.8,307.4,435.1z"/>
	<path class="st3" d="M461,432.6c-1.4,7.4-8.5,12.2-15.7,10.7c-7.3-1.5-12-8.6-10.6-16c1.4-7.4,8.5-12.2,15.7-10.7
		C457.7,418.1,462.5,425.3,461,432.6z"/>
	<g>
		<g>
			<path class="st5" d="M438.9,748.9c-2.4,33.5-31.1,58.7-64.1,56.2s-57.8-31.6-55.4-65.1c2.4-33.5,31.1-58.7,64.1-56.2
				S441.3,715.4,438.9,748.9L438.9,748.9z"/>
			<path class="st3" d="M422.7,747.7c-1.8,24.4-22.7,42.8-46.7,41c-24-1.8-42.1-23-40.3-47.4c1.8-24.4,22.7-42.8,46.7-41
				C406.4,702.1,424.5,723.3,422.7,747.7z"/>
		</g>
		<path class="st8" d="M401.7,755.8c-0.2-0.1-0.3-2.7-0.4-7.3c-0.1-4.6-0.2-11.1-0.2-19.1l0.5,0.9c-6.5-3.9-14.1-8.4-22.5-13.3
			l1.3,0c-7,4-14.7,8.4-22.6,12.9c-0.6,1,0.8-1.4,0.7-1.2l0,0v0v0v0.1v0.2v0.4l0,0.9l0,1.7l0,3.4c0,2.3-0.1,4.5-0.1,6.7
			c-0.1,4.4-0.2,8.7-0.2,12.8l-0.6-1.1c8.2,5.1,15.7,9.7,22.2,13.8l-1,0c6.9-3.8,12.6-6.8,16.6-8.9
			C399.2,756.8,401.6,755.6,401.7,755.8c0.2,0.1-1.8,1.4-5.6,3.8c-3.8,2.4-9.5,5.8-16.5,9.9l-0.5,0.3l-0.5-0.3
			c-6.6-3.9-14.1-8.4-22.5-13.3l-0.6-0.4v-0.8c0-4.1,0.1-8.4,0.1-12.8c0-2.2,0-4.5,0.1-6.7l0-3.4l0-1.7v-0.9l0-0.4v-0.2v-0.1v-0.1v0
			l0,0c-0.1,0.2,1.3-2.2,0.7-1.2c8-4.5,15.7-8.8,22.7-12.8l0.6-0.4l0.6,0.4c8.2,5.1,15.7,9.8,22.2,13.8l0.5,0.3l0,0.6
			c-0.2,8.3-0.5,15-0.8,19.5C402.1,753.4,401.9,755.9,401.7,755.8L401.7,755.8z"/>
	</g>
	<ellipse class="st8" cx="379.3" cy="222.9" rx="20.9" ry="21.2"/>
	<path class="st3" d="M345.9,428.8c1,0.1,0.5,4.9,3.4,11.2c1.4,3.1,3.8,6.6,7.1,9.5c3.3,2.9,7.7,5.2,12.6,5.7
		c4.9,0.4,9.6-1,13.4-3.3c3.8-2.3,6.7-5.2,8.7-8c4-5.7,4.4-10.5,5.4-10.4c0.4,0,0.8,1.2,0.8,3.5c0,2.3-0.6,5.5-2.4,9.2
		c-1.8,3.6-4.9,7.6-9.4,10.6c-4.5,3.1-10.5,5.1-17,4.6c-6.5-0.7-12-3.8-15.9-7.6c-3.9-3.8-6.3-8.3-7.4-12.2
		c-1.1-3.9-1.2-7.3-0.8-9.5C344.9,429.9,345.5,428.8,345.9,428.8L345.9,428.8z"/>
	<path class="st5" d="M547.5,491c-0.2-0.1,2.5-4.3,5.1-11.9c2.7-7.5,5-18.4,6.1-30.5c1.2-12.2,1-23.3,0.7-31.3
		c-0.2-4-0.4-7.3-0.5-9.5c-0.2-2.2-0.2-3.5-0.1-3.5c0.1,0,0.3,1.2,0.6,3.5c0.3,2.2,0.6,5.5,0.9,9.5c0.5,8,0.8,19.2-0.3,31.5
		c-1.1,12.3-3.6,23.2-6.5,30.7c-1.4,3.8-2.9,6.7-4,8.6C548.2,490,547.5,491,547.5,491L547.5,491z"/>
	<path class="st5" d="M196.9,402.1c0.1,0-0.2,1.3-0.8,3.4c-0.3,1.1-0.6,2.4-0.9,4c-0.3,1.6-0.8,3.3-1.1,5.3c-0.7,3.9-1.3,8.7-1.7,14
		c-0.3,5.3-0.3,11.1,0.2,17.2c0.6,6.1,1.6,11.8,2.8,17c1.3,5.1,2.6,9.7,4.1,13.5c0.6,1.9,1.4,3.5,2,5c0.6,1.5,1.1,2.7,1.6,3.8
		c0.9,2,1.4,3.2,1.3,3.2c-0.1,0-0.7-1-1.8-3c-0.5-1-1.2-2.2-1.8-3.7c-0.6-1.5-1.5-3.1-2.1-5c-1.5-3.7-3-8.3-4.3-13.5
		c-1.3-5.2-2.3-11-2.9-17.1c-0.5-6.2-0.5-12-0.1-17.4c0.4-5.3,1.1-10.1,1.9-14.1c0.4-2,0.9-3.8,1.3-5.3c0.4-1.6,0.8-2.9,1.1-3.9
		C196.3,403.3,196.8,402.1,196.9,402.1L196.9,402.1z"/>
	<path class="st5" d="M207.6,623.8c0,0,0.3,0.1,0.9,0.3c0.6,0.2,1.5,0.5,2.6,0.9c2.4,0.8,5.7,2.1,10.1,3.6c2.2,0.8,4.6,1.7,7.3,2.6
		c2.7,0.9,5.6,1.8,8.8,2.8c6.3,1.9,13.4,4.4,21.5,6.3c4,1,8.2,2.1,12.6,3.3c4.4,1.1,9,2,13.8,3c9.5,2.2,19.8,3.7,30.6,5.5
		c21.7,3,45.7,5,71,5.2c25.3-0.1,49.3-2.2,71-5.1c10.8-1.8,21.1-3.3,30.6-5.5c4.8-1,9.4-1.9,13.8-3c4.4-1.1,8.6-2.2,12.6-3.3
		c8.1-1.9,15.2-4.4,21.5-6.3c3.1-1,6.1-1.8,8.8-2.8c2.7-1,5.1-1.8,7.3-2.6c4.3-1.5,7.7-2.8,10.1-3.6c1.1-0.4,2-0.7,2.6-0.9
		c0.6-0.2,0.9-0.3,0.9-0.3s-0.3,0.2-0.9,0.4c-0.6,0.3-1.5,0.6-2.6,1c-2.3,0.9-5.7,2.2-10,3.8c-2.2,0.8-4.6,1.7-7.2,2.7
		c-2.7,0.9-5.6,1.8-8.7,2.8c-6.3,2-13.4,4.5-21.5,6.5c-4,1.1-8.2,2.2-12.6,3.4c-4.4,1.2-9,2-13.8,3.1c-9.5,2.3-19.8,3.8-30.6,5.6
		c-21.7,3.1-45.8,5.2-71.1,5.3c-25.3-0.1-49.4-2.2-71.1-5.3c-10.8-1.8-21.1-3.4-30.6-5.6c-4.8-1.1-9.4-1.9-13.8-3.1
		c-4.4-1.2-8.6-2.3-12.6-3.4c-8.1-2-15.1-4.5-21.4-6.5c-3.1-1-6.1-1.9-8.7-2.9c-2.6-1-5.1-1.9-7.2-2.7c-4.3-1.6-7.6-2.9-10-3.8
		c-1.1-0.4-1.9-0.8-2.6-1C207.8,623.9,207.5,623.8,207.6,623.8L207.6,623.8z"/>
	<g class="st10">
		<path d="M208.3,624.1c0,0,20.5-43.2,178.9-45c158.4-1.8,178.9,45,178.9,45S406.3,704.1,208.3,624.1L208.3,624.1z"/>
	</g>
	<path class="st3" d="M352.7,285.1c0,0-0.2,0-0.5,0.1c-0.4,0-1,0.1-1.6,0.1c-1.4,0.1-3.5,0.2-6.1,0.5c-5.3,0.5-13,1.6-22.3,3.8
		c-9.3,2.2-20.2,5.7-31.7,11.1c-11.5,5.4-23.4,12.8-34.7,22.1c-11.2,9.5-20.6,20-28,30.4c-7.4,10.4-12.9,20.6-16.8,29.5
		c-3.9,8.9-6.4,16.4-7.9,21.6c-0.8,2.6-1.3,4.7-1.7,6c-0.2,0.6-0.3,1.1-0.4,1.6c-0.1,0.4-0.2,0.5-0.2,0.5s0-0.2,0.1-0.5
		c0.1-0.4,0.2-1,0.3-1.6c0.3-1.4,0.7-3.5,1.4-6.1c1.4-5.3,3.7-12.8,7.5-21.8c3.8-9,9.3-19.3,16.6-29.8c7.4-10.5,16.8-21.2,28.1-30.7
		c11.4-9.5,23.4-16.9,35-22.2c11.6-5.4,22.6-8.9,32-11c9.4-2.1,17.1-3,22.5-3.4c2.7-0.3,4.8-0.2,6.2-0.3c0.6,0,1.2,0,1.6,0
		C352.5,285.1,352.7,285.1,352.7,285.1L352.7,285.1z"/>
	<path class="st3" d="M204.6,469.6c-0.1,0.1-1.1-1.7-2.1-4.8c-1.1-3-2.3-7.4-3.1-12.3c-0.8-4.9-0.9-9.4-0.8-12.7
		c0.1-3.3,0.5-5.2,0.6-5.2c0.4,0-0.1,8,1.4,17.7C202,462,204.9,469.5,204.6,469.6L204.6,469.6z"/>
	<path class="st3" d="M164.9,457.2c-0.1,0-0.5-0.4-1.3-1.3c-0.7-0.9-1.7-2.3-2.7-4.2c-1.9-3.7-3.6-9.6-2.8-16.1s4-11.8,6.8-14.8
		c1.4-1.6,2.7-2.7,3.6-3.3s1.5-1,1.6-0.9c0.1,0.2-2,1.6-4.6,4.8c-2.6,3.1-5.4,8.2-6.2,14.4c-0.8,6.2,0.6,11.9,2.3,15.6
		C163.4,455.1,165,457.1,164.9,457.2L164.9,457.2z"/>
	<path class="st3" d="M380.6,208.1c0,0.2-2.1-0.6-5.5-0.1c-3.3,0.4-8.1,2.3-10.9,6.7c-2.8,4.4-2.5,9.6-1.5,12.9
		c1,3.3,2.6,4.9,2.4,5.1c0,0.1-0.5-0.3-1.1-1.1c-0.6-0.8-1.5-2-2.1-3.7c-1.3-3.3-1.8-8.9,1.3-13.8c3.1-4.8,8.3-6.8,11.9-6.9
		c1.8-0.1,3.3,0.1,4.2,0.4C380.2,207.7,380.7,208,380.6,208.1L380.6,208.1z"/>
	<path class="st3" d="M586.3,428.1c-0.3,0.3-3.9-3.3-9.5-6c-5.5-2.8-10.5-3.5-10.5-3.9c0-0.3,5.3-0.1,11,2.7
		C583.1,423.9,586.5,428,586.3,428.1L586.3,428.1z"/>
	<path class="st3" d="M262.7,847.8c0,0-0.1-0.2-0.3-0.5c-0.2-0.4-0.5-0.8-0.8-1.4c-0.7-1.3-1.7-3.2-2.9-5.5c-0.6-1.2-1.3-2.5-2-4
		c-0.7-1.5-1.4-3.1-2.2-4.8c-1.6-3.5-3.4-7.4-5.2-11.9c-0.9-2.2-1.9-4.6-2.8-7c-0.9-2.5-1.8-5-2.8-7.7c-2-5.3-3.7-11.1-5.8-17.2
		c-3.7-12.2-7.3-25.8-10.5-40.2c-3.1-14.4-5.5-28.2-7.4-40.9c-1.7-12.7-3.1-24.1-3.9-33.7c-0.5-4.8-0.7-9.2-1-13
		c-0.3-3.8-0.4-7.1-0.5-9.8c-0.1-2.6-0.1-4.7-0.2-6.2c0-0.7,0-1.2,0-1.6c0-0.4,0-0.5,0-0.5s0.1,0.2,0.1,0.5c0,0.4,0.1,1,0.1,1.6
		c0.1,1.5,0.3,3.6,0.4,6.2c0.1,2.7,0.4,6,0.7,9.8c0.3,3.8,0.6,8.2,1.1,13c0.9,9.6,2.3,21,4.1,33.6c1.9,12.6,4.4,26.4,7.5,40.8
		c3.2,14.3,6.8,27.9,10.4,40.1c2,6,3.7,11.9,5.6,17.2c0.9,2.7,1.9,5.2,2.7,7.7c1,2.4,1.9,4.8,2.8,7c1.7,4.5,3.4,8.5,5,12
		c0.8,1.8,1.5,3.4,2.1,4.9c0.7,1.5,1.4,2.8,1.9,4c1.1,2.3,2,4.2,2.7,5.6c0.3,0.6,0.5,1.1,0.7,1.5
		C262.7,847.6,262.7,847.8,262.7,847.8L262.7,847.8z"/>
	<path class="st3" d="M170.3,652.4c0,0.3-7.7,0.1-17.2-0.6s-17.2-1.5-17.2-1.9c0-0.3,7.7-0.1,17.2,0.6S170.3,652,170.3,652.4
		L170.3,652.4z"/>
	<path class="st3" d="M81.5,601.2c-0.3,0.2-4.3-6.8-9-15.5c-4.7-8.7-8.2-16-7.9-16.1c0.3-0.2,4.3,6.8,9,15.5
		C78.3,593.8,81.8,601,81.5,601.2z"/>
	<path class="st3" d="M346.4,923.3c0,0.1-1,0-2.8-0.3c-1.8-0.3-4.3-0.9-7.4-1.8c-3.1-0.9-6.7-2.3-10.5-4.1c-3.8-1.9-7.9-4.2-11.9-7
		c-4-2.9-7.5-6-10.6-9c-3-3.1-5.5-6-7.4-8.7c-1.9-2.6-3.3-4.8-4.2-6.4c-0.9-1.6-1.3-2.5-1.3-2.5c0.2-0.1,2.2,3.4,6.1,8.4
		c2,2.5,4.5,5.4,7.5,8.4c3,2.9,6.5,6,10.5,8.8c4,2.8,8,5.1,11.7,7c3.8,1.8,7.3,3.3,10.3,4.3C342.5,922.4,346.4,923.1,346.4,923.3
		L346.4,923.3z"/>
	<path class="st3" d="M382.6,812.5c0,0-0.6,0.1-1.6,0.2c-1.1,0-2.7,0.3-4.8,0.1c-4.1,0-10.2-0.7-17.3-2.8c-3.6-1.1-7.3-2.7-11.3-4.6
		c-3.9-2.1-7.9-4.5-11.7-7.7c-7.7-6.2-14.9-14.8-19.5-25.4c-4.5-10.7-5.8-21.9-5-31.9c0.3-5,1.4-9.7,2.5-14
		c1.3-4.3,2.7-8.1,4.4-11.5c3.3-6.8,6.9-11.7,9.8-14.8c1.3-1.6,2.6-2.7,3.4-3.4c0.8-0.8,1.2-1.1,1.3-1.1c0.1,0.1-1.6,1.7-4.3,4.9
		c-2.7,3.2-6.2,8.1-9.3,14.8c-1.6,3.3-3,7.2-4.2,11.4c-1,4.2-2,8.8-2.3,13.8c-0.8,9.8,0.6,20.8,5,31.3c4.5,10.4,11.5,18.9,19.1,25
		c3.7,3.1,7.7,5.5,11.5,7.7c3.9,2,7.5,3.6,11.1,4.7c7,2.2,13,3,17.1,3.2C380.3,812.5,382.6,812.3,382.6,812.5L382.6,812.5z"/>
	<path class="st3" d="M96.9,623.7c-0.1,0.2-1.8-0.7-4.8-1.4c-3-0.7-7.2-1-11.8,0.1c-4.5,1.1-8.2,3.3-10.5,5.3
		c-2.3,2-3.5,3.6-3.7,3.4c-0.1-0.1,0.8-1.9,3.1-4.1c2.3-2.2,6.1-4.7,10.8-5.9c4.8-1.2,9.3-0.7,12.3,0.2
		C95.4,622.4,97,623.6,96.9,623.7L96.9,623.7z"/>
	<path class="st3" d="M445.4,385.4c0,0.3-29,0.6-64.7,0.6s-64.7-0.3-64.7-0.6s29-0.6,64.7-0.6S445.4,385,445.4,385.4L445.4,385.4z"
		/>
	<path class="st3" d="M334.9,535.3c0,0-0.4,0.1-1.1,0.2c-0.9,0.1-1.9,0.2-3.2,0.3c-1.4,0.1-3,0.2-5,0.3c-2,0-4.2,0.2-6.6,0.1
		c-4.9,0-10.8-0.3-17.3-1c-6.5-0.8-13.5-1.9-20.9-3.7c-7.3-1.8-14.2-3.9-20.3-6.2c-6.1-2.3-11.5-4.7-15.9-6.9
		c-2.2-1-4.2-2.2-5.9-3.1c-1.7-0.9-3.2-1.8-4.4-2.5c-1.1-0.7-2-1.2-2.7-1.7c-0.6-0.4-0.9-0.6-0.9-0.7s0.4,0.1,1,0.4
		c0.8,0.4,1.7,0.9,2.8,1.5c1.2,0.7,2.7,1.5,4.4,2.3c1.8,0.9,3.7,1.9,6,2.9c4.4,2.1,9.8,4.4,15.9,6.6c6.1,2.2,12.9,4.3,20.2,6.1
		c7.3,1.7,14.3,2.9,20.7,3.7c6.4,0.8,12.3,1.2,17.1,1.3c2.5,0.1,4.7,0.1,6.6,0.1c2,0,3.6,0,5,0c1.3,0,2.3,0,3.2,0
		C334.5,535.2,334.9,535.2,334.9,535.3L334.9,535.3z"/>
	<path class="st3" d="M523.3,643.3c0,0-0.2,0.1-0.6,0.3c-0.5,0.2-1,0.4-1.7,0.7c-1.6,0.6-3.8,1.4-6.6,2.4c-2.9,1-6.4,2.3-10.5,3.5
		c-4.1,1.3-8.8,2.8-14,4.1c-2.6,0.7-5.4,1.4-8.2,2.2c-2.9,0.8-5.9,1.4-9,2.1c-6.2,1.5-12.9,2.7-19.9,4.1
		c-14.1,2.4-29.8,4.4-46.2,5.5c-16.5,1-32.3,0.9-46.6,0.3c-7.1-0.5-13.9-0.8-20.3-1.6c-3.2-0.3-6.2-0.6-9.2-1
		c-2.9-0.4-5.7-0.8-8.4-1.2c-5.4-0.7-10.2-1.6-14.4-2.4c-4.2-0.7-7.9-1.5-10.8-2.2c-2.9-0.7-5.1-1.2-6.8-1.5
		c-0.7-0.2-1.3-0.3-1.8-0.4c-0.4-0.1-0.6-0.2-0.6-0.2s0.2,0,0.6,0.1c0.5,0.1,1.1,0.2,1.8,0.3c1.7,0.3,3.9,0.8,6.8,1.3
		c3,0.6,6.6,1.3,10.8,2c4.2,0.7,9,1.6,14.4,2.2c2.7,0.3,5.5,0.7,8.4,1.1c2.9,0.4,6,0.6,9.1,0.9c6.3,0.7,13.1,1,20.2,1.4
		c14.3,0.6,30,0.6,46.4-0.4c16.4-1.1,32-3.1,46.1-5.4c7-1.3,13.7-2.5,19.9-4c3.1-0.7,6.1-1.3,9-2c2.9-0.7,5.6-1.5,8.2-2.1
		c5.3-1.3,9.9-2.8,14-4c4.1-1.2,7.7-2.3,10.5-3.3c2.8-0.9,5-1.6,6.6-2.2c0.7-0.2,1.3-0.4,1.7-0.5
		C523.1,643.3,523.3,643.3,523.3,643.3L523.3,643.3z"/>
</g>
</svg>
